<svg enable-background="new 0 0 48 48" version="1" viewBox="0 0 48 48" xmlns="http://www.w3.org/2000/svg" xmlns:xlink="http://www.w3.org/1999/xlink">
 <g>
  <circle cx="24" cy="24" r="21" fill="#7baabe"/>
 </g>
 <g fill="#fff">
  <path d="m30.729 19.356c-0.02649-4.608-3.8665-6.9914-7.0349-6.9533-3.5877 0.04311-7.2595 2.5545-7.2992 7.4115v-1.9e-5c1.3704-0.04847 2.7036-0.06491 3.8169-0.0862-0.01237-1.4266 0.94637-3.5494 3.37-3.6195 2.4236-0.0701 3.5071 1.4979 3.5548 3.3587 0.03928 1.5344-1.9092 2.5654-3.1444 3.5817-1.4131 1.1627-2.9194 3.4055-2.7685 6.0858 1.5506-0.02613 2.8286-0.02204 4.038-0.03637 0.02545-1.2107 0.52642-2.8732 1.8019-4.0495 1.2755-1.1762 3.6841-2.4621 3.6655-5.6928z"/>
  <circle cx="23.385" cy="33.469" r="2.5"/>
 </g>
</svg>
